<svg id="Calque_1" data-name="Calque 1" xmlns="http://www.w3.org/2000/svg" viewBox="0 0 206.5 913"><defs><style>.cls-1{fill:#4fa2c3;}</style></defs><title>Sans titre - 1</title><path class="cls-1" d="M.72,913.83h0V.83h0a600.87,600.87,0,0,0,84.4,104.49c27.93,27.49,41.21,35,65.83,65.42,35.86,44.25,45.64,76.08,50.67,93.44a144.18,144.18,0,0,1,5.6,40V606.79a140.73,140.73,0,0,1-.7,14.22,217.8,217.8,0,0,1-18.41,68.24,237.75,237.75,0,0,1-39.29,59.56c-26.31,29.46-47.33,39.08-69,55.66C54.94,823.5,23.71,855.91.72,913.83Z" transform="translate(-0.72 -0.83)"/></svg>